<?xml version="1.0" standalone="no"?>
<!DOCTYPE svg PUBLIC "-//W3C//DTD SVG 20010904//EN"
 "http://www.w3.org/TR/2001/REC-SVG-20010904/DTD/svg10.dtd">
<svg version="1.0" xmlns="http://www.w3.org/2000/svg"
 width="316.000000pt" height="316.000000pt" viewBox="0 0 316.000000 316.000000"
 preserveAspectRatio="xMidYMid meet">
<metadata>
Created by potrace 1.14, written by Peter Selinger 2001-2017
</metadata>
<g transform="translate(0.000000,316.000000) scale(0.100000,-0.100000)"
fill="#000000" stroke="none">
<path d="M1365 3145 c-44 -8 -98 -16 -120 -20 -75 -13 -270 -82 -365 -130
-167 -83 -286 -170 -421 -306 -158 -157 -255 -307 -359 -554 -20 -46 -63 -204
-75 -272 -19 -110 -23 -175 -20 -318 4 -168 5 -179 36 -316 38 -176 126 -377
235 -540 48 -72 188 -235 235 -274 99 -82 133 -108 199 -152 197 -132 418
-214 675 -251 93 -13 365 -7 465 11 508 92 928 409 1149 869 74 154 116 286
137 422 3 21 8 48 11 60 2 11 6 89 8 171 2 146 -12 306 -35 390 -6 22 -11 42
-10 45 1 8 -56 174 -75 216 -154 352 -415 629 -750 797 -140 70 -318 128 -440
143 -22 3 -47 8 -55 11 -33 12 -348 10 -425 -2z"/>
</g>
</svg>
